<svg xmlns="http://www.w3.org/2000/svg" width="300" height="300" viewBox="0 0 300 300">
  <path d="M170.0,150.0 C170.0,153.6 169.9,152.6 168.6,156.0 C167.3,159.5 168.3,159.1 165.8,161.5 C163.3,163.9 163.6,163.5 160.2,164.0 C156.8,164.6 157.4,163.1 154.3,163.4 C151.3,163.6 153.2,163.2 150.0,164.8 C146.8,166.5 147.8,167.9 143.8,169.0 C139.9,170.0 139.7,170.5 136.7,168.3 C133.8,166.1 134.7,165.6 134.0,161.6 C133.4,157.6 134.5,158.5 134.5,155.0 C134.5,151.6 134.1,153.0 134.0,150.0 C134.0,147.0 133.6,147.8 134.4,144.9 C135.1,142.0 135.2,143.3 136.6,140.3 C138.1,137.3 137.1,138.3 139.0,134.9 C141.0,131.6 139.9,130.9 143.2,129.1 C146.5,127.3 146.5,127.2 150.0,128.8 C153.5,130.5 152.6,131.6 155.0,134.7 C157.3,137.8 155.4,137.4 157.9,139.2 C160.3,140.9 159.9,139.0 163.1,140.4 C166.4,141.9 166.7,141.0 168.7,143.9 C170.8,146.8 170.1,146.4 170.0,150.0 Z" fill="none" stroke="#306E5E" stroke-width="1" opacity="0.05"/>
  <path d="M189.9,150.0 C190.0,157.3 191.6,156.4 187.7,162.3 C183.9,168.1 183.6,166.8 177.0,169.6 C170.5,172.5 171.1,168.9 165.9,171.8 C160.6,174.8 164.4,173.7 159.6,179.5 C154.8,185.4 157.0,187.7 150.0,191.5 C143.0,195.3 143.0,195.4 136.3,192.2 C129.6,189.0 131.6,187.6 127.6,180.8 C123.7,174.0 125.9,175.6 123.2,169.5 C120.6,163.3 120.4,166.0 118.8,160.1 C117.2,154.3 117.7,156.0 117.9,150.0 C118.0,144.0 119.0,146.8 119.2,140.0 C119.5,133.2 117.5,135.2 118.8,127.3 C120.1,119.4 118.0,118.5 123.6,113.6 C129.1,108.7 129.4,109.3 137.3,111.1 C145.3,112.8 143.6,115.7 150.0,119.5 C156.4,123.3 152.6,122.8 158.5,123.7 C164.5,124.6 163.1,121.5 170.0,122.5 C176.8,123.6 176.3,122.5 181.5,127.1 C186.7,131.7 184.7,131.0 187.2,137.9 C189.8,144.8 189.7,142.7 189.9,150.0 Z" fill="none" stroke="#306E5E" stroke-width="1" opacity="0.06"/>
  <path d="M209.7,150.0 C205.7,160.1 203.5,157.7 195.2,164.7 C187.0,171.7 187.0,165.8 182.2,173.4 C177.3,180.9 182.7,178.7 179.0,189.9 C175.2,201.1 178.4,203.2 169.7,210.6 C161.0,218.0 161.1,216.9 150.0,214.6 C138.9,212.2 141.8,209.9 132.8,202.9 C123.8,195.9 127.0,198.3 120.0,191.2 C113.1,184.2 114.0,187.4 109.7,179.3 C105.4,171.2 108.1,173.2 105.7,164.4 C103.3,155.6 105.6,159.9 101.7,150.0 C97.7,140.1 94.6,143.4 92.5,131.3 C90.5,119.3 87.9,118.5 94.8,109.9 C101.7,101.2 103.0,103.1 115.5,102.5 C128.0,101.9 126.0,106.7 136.3,107.9 C146.7,109.1 141.0,108.9 150.0,106.6 C159.0,104.2 156.1,101.0 166.2,100.2 C176.2,99.4 174.3,99.2 183.5,103.9 C192.8,108.5 189.6,107.7 197.0,115.8 C204.5,124.0 204.7,120.8 208.5,131.0 C212.2,141.3 213.6,139.9 209.7,150.0 Z" fill="none" stroke="#F2B245" stroke-width="1" opacity="0.07"/>
  <path d="M209.9,150.0 C202.7,162.2 201.8,154.2 200.8,166.5 C199.7,178.8 206.4,175.1 206.3,190.9 C206.2,206.7 209.5,207.8 200.4,219.3 C191.2,230.8 190.8,227.8 175.7,229.1 C160.6,230.4 164.2,227.3 150.0,223.6 C135.8,219.8 140.0,222.6 128.4,216.6 C116.7,210.5 119.2,212.8 111.2,203.4 C103.2,193.9 108.9,195.0 101.8,185.0 C94.7,175.1 98.4,180.8 87.7,170.3 C76.9,159.7 73.0,164.5 65.9,150.0 C58.7,135.5 56.6,135.1 63.8,122.0 C71.0,108.9 74.2,112.0 89.8,106.3 C105.4,100.5 103.3,107.0 115.7,102.8 C128.1,98.6 120.9,99.1 131.2,92.1 C141.5,85.2 137.5,83.3 150.0,79.6 C162.5,75.8 159.1,77.4 172.9,79.6 C186.6,81.8 182.2,80.6 195.9,86.9 C209.5,93.1 209.7,88.7 218.3,100.4 C226.9,112.1 227.1,110.9 224.6,125.8 C222.1,140.6 217.0,137.8 209.9,150.0 Z" fill="none" stroke="#306E5E" stroke-width="1" opacity="0.09"/>
  <path d="M218.9,150.0 C224.8,165.0 231.8,159.5 236.9,178.2 C242.0,197.0 244.3,196.5 235.9,212.4 C227.6,228.4 226.4,223.7 209.2,231.5 C192.0,239.2 196.4,235.8 178.7,238.2 C160.9,240.7 166.0,243.2 150.0,239.6 C134.0,236.0 137.9,235.8 125.2,226.4 C112.5,217.0 120.9,216.2 107.7,208.2 C94.5,200.3 99.7,207.3 81.3,199.9 C62.8,192.6 58.9,198.7 46.2,183.7 C33.5,168.7 33.1,168.3 38.9,150.0 C44.8,131.7 50.3,135.6 65.7,122.6 C81.1,109.6 79.0,117.7 90.3,106.6 C101.6,95.6 93.6,97.7 103.4,85.8 C113.2,74.0 109.1,74.9 123.1,67.1 C137.0,59.2 132.7,63.2 150.0,59.6 C167.3,56.0 161.8,54.3 180.8,55.2 C199.9,56.1 199.7,50.9 213.5,62.6 C227.3,74.3 225.7,74.5 226.9,94.1 C228.1,113.8 219.8,111.3 217.4,128.1 C215.0,144.9 213.1,135.0 218.9,150.0 Z" fill="none" stroke="#CAC5F9" stroke-width="1" opacity="0.10"/>
  <path d="M263.6,150.0 C274.4,169.6 274.1,167.7 268.7,188.6 C263.4,209.4 261.2,203.4 245.6,219.5 C230.1,235.5 235.5,231.9 216.9,242.1 C198.3,252.2 203.7,253.3 183.6,253.4 C163.5,253.5 167.9,249.2 150.0,242.3 C132.1,235.5 142.7,232.4 123.8,230.7 C104.9,229.0 111.8,237.2 87.1,236.6 C62.4,236.1 59.4,242.9 41.5,228.9 C23.5,214.8 25.5,213.5 27.3,189.9 C29.1,166.2 36.8,170.4 47.6,150.0 C58.4,129.6 56.3,139.1 63.3,121.8 C70.3,104.6 62.9,108.9 70.9,92.5 C78.9,76.2 76.1,80.7 89.9,67.3 C103.7,53.9 98.8,60.2 116.8,47.9 C134.9,35.7 127.9,33.2 150.0,26.3 C172.1,19.5 171.3,14.6 190.5,25.3 C209.7,35.9 206.3,38.9 214.0,61.9 C221.7,84.9 210.6,83.5 216.2,101.9 C221.8,120.3 218.5,108.7 232.7,123.1 C246.9,137.5 252.8,130.4 263.6,150.0 Z" fill="none" stroke="#306E5E" stroke-width="1" opacity="0.11"/>
  <path d="M291.7,150.0 C292.3,175.2 289.6,168.3 280.2,192.3 C270.8,216.4 277.2,212.3 260.4,230.2 C243.5,248.1 247.7,246.8 224.1,251.9 C200.4,257.1 203.8,248.1 181.6,247.3 C159.4,246.6 171.7,241.1 150.0,249.5 C128.3,257.9 137.1,266.8 109.3,275.3 C81.4,283.8 80.0,289.9 57.1,277.8 C34.3,265.7 38.6,262.5 33.0,235.0 C27.5,207.5 36.6,211.7 38.6,186.2 C40.6,160.7 39.1,171.5 39.7,150.0 C40.3,128.5 35.5,134.8 40.5,114.4 C45.6,94.1 45.9,102.0 56.5,82.1 C67.1,62.1 61.8,70.4 75.9,48.1 C90.1,25.8 81.5,22.8 103.8,7.7 C126.0,-7.5 125.0,-10.9 150.0,-2.5 C175.0,5.9 170.6,12.7 187.2,35.6 C203.7,58.6 190.3,58.6 205.3,73.9 C220.2,89.3 215.0,76.5 236.9,86.9 C258.8,97.2 261.8,89.4 278.2,108.3 C294.7,127.3 291.1,124.8 291.7,150.0 Z" fill="none" stroke="#306E5E" stroke-width="1" opacity="0.12"/>
</svg>