<svg xmlns="http://www.w3.org/2000/svg" viewBox="0 0 1440 800" width="1440" height="800">
  <rect width="1440" height="800" fill="#FDFBF7"/>
  <path d="M526.2,240.0 C529.2,340.3 519.0,321.9 435.6,387.6 C352.2,453.3 376.6,442.4 288.0,427.7 C199.4,413.0 268.6,411.2 182.5,345.5 C96.4,279.8 65.8,337.6 42.1,240.0 C18.3,142.4 28.5,111.4 114.5,66.5 C200.6,21.7 178.6,99.8 288.0,111.8 C397.4,123.8 343.8,56.0 427.1,100.9 C510.5,145.7 523.2,139.7 526.2,240.0 Z" fill="#306E5E" opacity="0.1"/>
  <path d="M1422.7,480.0 C1409.6,609.6 1413.3,583.9 1318.5,646.5 C1223.8,709.2 1287.5,640.1 1152.0,659.0 C1016.5,678.0 1037.8,763.3 931.4,700.6 C825.0,637.9 811.3,597.9 847.9,480.0 C884.4,362.1 929.3,449.9 1035.8,363.8 C1142.2,277.6 1040.0,264.5 1152.0,233.8 C1264.0,203.2 1261.0,190.1 1355.8,276.2 C1450.5,362.4 1435.7,350.4 1422.7,480.0 Z" fill="#FF6719" opacity="0.08"/>
  <path d="M878.5,120.0 C860.4,202.9 868.1,128.8 812.6,212.6 C757.2,296.5 802.0,342.5 720.0,359.6 C638.0,376.7 621.6,345.4 578.5,261.5 C535.4,177.6 593.1,215.3 596.9,120.0 C600.7,24.7 546.2,58.9 589.3,-10.7 C632.4,-80.3 623.8,-74.1 720.0,-78.8 C816.2,-83.5 808.8,-93.8 864.2,-24.2 C919.7,45.3 896.5,37.1 878.5,120.0 Z" fill="#F2B245" opacity="0.08"/>
  <path d="M1074.7,680.0 C1100.9,764.1 1142.2,786.0 1093.7,837.7 C1045.2,889.4 1022.0,852.2 936.0,827.8 C850.0,803.4 906.3,819.8 848.0,768.0 C789.6,716.3 781.9,754.3 769.2,680.0 C756.6,605.7 753.4,621.2 811.8,555.8 C870.2,490.4 863.6,478.7 936.0,493.3 C1008.4,507.8 970.1,532.0 1018.6,597.4 C1067.2,662.7 1048.4,595.9 1074.7,680.0 Z" fill="#CAC5F9" opacity="0.1"/>
  <path d="M676.1,560.0 C661.3,629.1 641.8,592.2 581.5,637.5 C521.3,682.8 565.9,681.7 504.0,689.4 C442.1,697.1 464.4,704.8 404.5,659.5 C344.7,614.2 332.9,629.5 333.0,560.0 C333.1,490.5 345.0,491.5 404.9,460.9 C464.8,430.3 427.4,479.8 504.0,472.6 C580.6,465.3 563.6,409.5 623.9,440.1 C684.1,470.7 691.0,490.9 676.1,560.0 Z" fill="#598b7e" opacity="0.06"/>
</svg>