<svg xmlns="http://www.w3.org/2000/svg" viewBox="0 0 1440 800" width="1440" height="800">
  <rect width="1440" height="800" fill="#FDFBF7"/>
  <path d="M0,400.0 C244.8,340.0 475.2,340.0 720.0,400.0 C964.8,460.0 1195.2,460.0 1440,400.0 L1440,800 L0,800 Z" fill="#306E5E" opacity="0.1"/>
  <path d="M0,480.0 C244.8,435.0 475.2,435.0 720.0,480.0 C964.8,525.0 1195.2,525.0 1440,480.0 L1440,800 L0,800 Z" fill="#F2B245" opacity="0.08"/>
  <path d="M0,560.0 C244.8,525.0 475.2,525.0 720.0,560.0 C964.8,595.0 1195.2,595.0 1440,560.0 L1440,800 L0,800 Z" fill="#CAC5F9" opacity="0.08"/>
  <path d="M0,640.0 C244.8,612.0 475.2,612.0 720.0,640.0 C964.8,668.0 1195.2,668.0 1440,640.0 L1440,800 L0,800 Z" fill="#FF6719" opacity="0.06"/>
  <path d="M0,704.0 C244.8,684.0 475.2,684.0 720.0,704.0 C964.8,724.0 1195.2,724.0 1440,704.0 L1440,800 L0,800 Z" fill="#6e9a8e" opacity="0.04"/>
</svg>