<svg xmlns="http://www.w3.org/2000/svg" viewBox="0 0 1440 120" preserveAspectRatio="none" width="1440" height="120">
  <path d="M0,42.0 C120.0,6.0 240.0,6.0 360.0,42.0 C480.0,78.0 600.0,78.0 720.0,42.0 C840.0,6.0 960.0,6.0 1080.0,42.0 C1200.0,78.0 1320.0,78.0 1440.0,42.0 L1440,120 L0,120 Z" fill="#306E5E" opacity="0.08"/>
  <path d="M0,60.0 C80.0,30.0 160.0,30.0 240.0,60.0 C320.0,90.0 400.0,90.0 480.0,60.0 C560.0,30.0 640.0,30.0 720.0,60.0 C800.0,90.0 880.0,90.0 960.0,60.0 C1040.0,30.0 1120.0,30.0 1200.0,60.0 C1280.0,90.0 1360.0,90.0 1440.0,60.0 L1440,120 L0,120 Z" fill="#F2B245" opacity="0.06"/>
  <path d="M0,78.0 C60.0,54.0 120.0,54.0 180.0,78.0 C240.0,102.0 300.0,102.0 360.0,78.0 C420.0,54.0 480.0,54.0 540.0,78.0 C600.0,102.0 660.0,102.0 720.0,78.0 C780.0,54.0 840.0,54.0 900.0,78.0 C960.0,102.0 1020.0,102.0 1080.0,78.0 C1140.0,54.0 1200.0,54.0 1260.0,78.0 C1320.0,102.0 1380.0,102.0 1440.0,78.0 L1440,120 L0,120 Z" fill="#CAC5F9" opacity="0.05"/>
</svg>